# xmcd CD database file
#
# Track frame offsets:
#	150
#	23387
#	45712
#
# Disc length: 917 seconds
#
# Revision: 0
# Processed by: cddbd v1.5PL3 Copyright (c) Steve Scherf et al.
# Submitted via: CDex 1.50beta9
#
DISCID=16039303
DTITLE=THE BOOM - 帰ろうかな
DYEAR=1994
DGENRE=Blues
TTITLE0=帰ろうかな
TTITLE1=五分後
TTITLE2=帰ろうかな　カラオケ
EXTD=YEAR: 1994
EXTT0=
EXTT1=
EXTT2=
PLAYORDER=
